<svg id="visual" viewBox="0 0 900 600" width="900" height="600" xmlns="http://www.w3.org/2000/svg" xmlns:xlink="http://www.w3.org/1999/xlink" version="1.1"><path d="M0 437L5.8 450.7C11.7 464.3 23.3 491.7 34.8 493.5C46.3 495.3 57.7 471.7 69.2 465.2C80.7 458.7 92.3 469.3 103.8 468.2C115.3 467 126.7 454 138.2 451C149.7 448 161.3 455 173 468.3C184.7 481.7 196.3 501.3 207.8 511.8C219.3 522.3 230.7 523.7 242.2 513.8C253.7 504 265.3 483 277 468.7C288.7 454.3 300.3 446.7 311.8 450.5C323.3 454.3 334.7 469.7 346.2 475.7C357.7 481.7 369.3 478.3 380.8 479.7C392.3 481 403.7 487 415.2 481.7C426.7 476.3 438.3 459.7 450 464C461.7 468.3 473.3 493.7 484.8 505.3C496.3 517 507.7 515 519.2 508.3C530.7 501.7 542.3 490.3 553.8 486C565.3 481.7 576.7 484.3 588.2 484.8C599.7 485.3 611.3 483.7 623 487.8C634.7 492 646.3 502 657.8 497.8C669.3 493.7 680.7 475.3 692.2 476.7C703.7 478 715.3 499 727 506.5C738.7 514 750.3 508 761.8 497.7C773.3 487.3 784.7 472.7 796.2 462.7C807.7 452.7 819.3 447.3 830.8 450C842.3 452.7 853.7 463.3 865.2 463.7C876.7 464 888.3 454 894.2 449L900 444L900 601L894.2 601C888.3 601 876.7 601 865.2 601C853.7 601 842.3 601 830.8 601C819.3 601 807.7 601 796.2 601C784.7 601 773.3 601 761.8 601C750.3 601 738.7 601 727 601C715.3 601 703.7 601 692.2 601C680.7 601 669.3 601 657.8 601C646.3 601 634.7 601 623 601C611.3 601 599.7 601 588.2 601C576.7 601 565.3 601 553.8 601C542.3 601 530.7 601 519.2 601C507.7 601 496.3 601 484.8 601C473.3 601 461.7 601 450 601C438.3 601 426.7 601 415.2 601C403.7 601 392.3 601 380.8 601C369.3 601 357.7 601 346.2 601C334.7 601 323.3 601 311.8 601C300.3 601 288.7 601 277 601C265.3 601 253.7 601 242.2 601C230.7 601 219.3 601 207.8 601C196.3 601 184.7 601 173 601C161.3 601 149.7 601 138.2 601C126.7 601 115.3 601 103.8 601C92.3 601 80.7 601 69.2 601C57.7 601 46.3 601 34.8 601C23.3 601 11.7 601 5.8 601L0 601Z" fill="#E06C75" stroke-linecap="round" stroke-linejoin="miter"></path></svg>