<svg id="visual" viewBox="0 0 900 600" width="900" height="600" xmlns="http://www.w3.org/2000/svg" xmlns:xlink="http://www.w3.org/1999/xlink" version="1.1"><path d="M0 481L5.8 473.8C11.7 466.7 23.3 452.3 34.8 454.7C46.3 457 57.7 476 69.2 485.8C80.7 495.7 92.3 496.3 103.8 496.8C115.3 497.3 126.7 497.7 138.2 490.2C149.7 482.7 161.3 467.3 173 459.2C184.7 451 196.3 450 207.8 454.3C219.3 458.7 230.7 468.3 242.2 479.3C253.7 490.3 265.3 502.7 277 498.8C288.7 495 300.3 475 311.8 462.5C323.3 450 334.7 445 346.2 449.7C357.7 454.3 369.3 468.7 380.8 474C392.3 479.3 403.7 475.7 415.2 468.8C426.7 462 438.3 452 450 450.8C461.7 449.7 473.3 457.3 484.8 458C496.3 458.7 507.7 452.3 519.2 461.5C530.7 470.7 542.3 495.3 553.8 508.7C565.3 522 576.7 524 588.2 517.2C599.7 510.3 611.3 494.7 623 489.3C634.7 484 646.3 489 657.8 489.5C669.3 490 680.7 486 692.2 483.5C703.7 481 715.3 480 727 479.7C738.7 479.3 750.3 479.7 761.8 479.7C773.3 479.7 784.7 479.3 796.2 481.3C807.7 483.3 819.3 487.7 830.8 491C842.3 494.3 853.7 496.7 865.2 501.8C876.7 507 888.3 515 894.2 519L900 523L900 601L894.2 601C888.3 601 876.7 601 865.2 601C853.7 601 842.3 601 830.8 601C819.3 601 807.7 601 796.2 601C784.7 601 773.3 601 761.8 601C750.3 601 738.7 601 727 601C715.3 601 703.7 601 692.2 601C680.7 601 669.3 601 657.8 601C646.3 601 634.7 601 623 601C611.3 601 599.7 601 588.2 601C576.7 601 565.3 601 553.8 601C542.3 601 530.7 601 519.2 601C507.7 601 496.3 601 484.8 601C473.3 601 461.7 601 450 601C438.3 601 426.7 601 415.2 601C403.7 601 392.3 601 380.8 601C369.3 601 357.7 601 346.2 601C334.7 601 323.3 601 311.8 601C300.3 601 288.7 601 277 601C265.3 601 253.7 601 242.2 601C230.7 601 219.3 601 207.8 601C196.3 601 184.7 601 173 601C161.3 601 149.7 601 138.2 601C126.7 601 115.3 601 103.8 601C92.3 601 80.7 601 69.2 601C57.7 601 46.3 601 34.8 601C23.3 601 11.7 601 5.8 601L0 601Z" fill="#C1389B" stroke-linecap="round" stroke-linejoin="miter"></path></svg>