<svg id="visual" viewBox="0 0 900 600" width="900" height="600" xmlns="http://www.w3.org/2000/svg" xmlns:xlink="http://www.w3.org/1999/xlink" version="1.1"><path d="M0 515L5.8 504.5C11.7 494 23.3 473 34.8 462.2C46.3 451.3 57.7 450.7 69.2 450.3C80.7 450 92.3 450 103.8 453C115.3 456 126.7 462 138.2 470.8C149.7 479.7 161.3 491.3 173 490C184.7 488.7 196.3 474.3 207.8 477C219.3 479.7 230.7 499.3 242.2 508.7C253.7 518 265.3 517 277 508C288.7 499 300.3 482 311.8 472.5C323.3 463 334.7 461 346.2 467.5C357.7 474 369.3 489 380.8 495.2C392.3 501.3 403.7 498.7 415.2 502.2C426.7 505.7 438.3 515.3 450 509.5C461.7 503.7 473.3 482.3 484.8 479C496.3 475.7 507.7 490.3 519.2 492.5C530.7 494.7 542.3 484.3 553.8 478.3C565.3 472.3 576.7 470.7 588.2 465.7C599.7 460.7 611.3 452.3 623 461.5C634.7 470.7 646.3 497.3 657.8 500.7C669.3 504 680.7 484 692.2 476C703.7 468 715.3 472 727 474C738.7 476 750.3 476 761.8 470.8C773.3 465.7 784.7 455.3 796.2 449.8C807.7 444.3 819.3 443.7 830.8 448.8C842.3 454 853.7 465 865.2 468.2C876.7 471.3 888.3 466.7 894.2 464.3L900 462L900 601L894.2 601C888.3 601 876.7 601 865.2 601C853.7 601 842.3 601 830.8 601C819.3 601 807.7 601 796.2 601C784.7 601 773.3 601 761.8 601C750.3 601 738.7 601 727 601C715.3 601 703.7 601 692.2 601C680.7 601 669.3 601 657.8 601C646.3 601 634.7 601 623 601C611.3 601 599.7 601 588.2 601C576.7 601 565.3 601 553.8 601C542.3 601 530.7 601 519.2 601C507.7 601 496.3 601 484.8 601C473.3 601 461.7 601 450 601C438.3 601 426.7 601 415.2 601C403.7 601 392.3 601 380.8 601C369.3 601 357.7 601 346.2 601C334.7 601 323.3 601 311.8 601C300.3 601 288.7 601 277 601C265.3 601 253.7 601 242.2 601C230.7 601 219.3 601 207.8 601C196.3 601 184.7 601 173 601C161.3 601 149.7 601 138.2 601C126.7 601 115.3 601 103.8 601C92.3 601 80.7 601 69.2 601C57.7 601 46.3 601 34.8 601C23.3 601 11.7 601 5.8 601L0 601Z" fill="#59387A" stroke-linecap="round" stroke-linejoin="miter"></path></svg>