<svg id="visual" viewBox="0 0 900 600" width="900" height="600" xmlns="http://www.w3.org/2000/svg" xmlns:xlink="http://www.w3.org/1999/xlink" version="1.1"><path d="M0 470L5.8 473C11.7 476 23.3 482 34.8 478.5C46.3 475 57.7 462 69.2 457.2C80.7 452.3 92.3 455.7 103.8 457.3C115.3 459 126.7 459 138.2 456.5C149.7 454 161.3 449 173 445.2C184.7 441.3 196.3 438.7 207.8 441.2C219.3 443.7 230.7 451.3 242.2 451.3C253.7 451.3 265.3 443.7 277 448C288.7 452.3 300.3 468.7 311.8 468.5C323.3 468.3 334.7 451.7 346.2 444C357.7 436.3 369.3 437.7 380.8 449.7C392.3 461.7 403.7 484.3 415.2 485.3C426.7 486.3 438.3 465.7 450 468C461.7 470.3 473.3 495.7 484.8 501.2C496.3 506.7 507.7 492.3 519.2 484.3C530.7 476.3 542.3 474.7 553.8 477.3C565.3 480 576.7 487 588.2 490.5C599.7 494 611.3 494 623 492.5C634.7 491 646.3 488 657.8 482C669.3 476 680.7 467 692.2 460.7C703.7 454.3 715.3 450.7 727 460.2C738.7 469.7 750.3 492.3 761.8 497.2C773.3 502 784.7 489 796.2 481.8C807.7 474.7 819.3 473.3 830.8 481C842.3 488.7 853.7 505.3 865.2 498.7C876.7 492 888.3 462 894.2 447L900 432L900 601L894.2 601C888.3 601 876.7 601 865.2 601C853.7 601 842.3 601 830.8 601C819.3 601 807.7 601 796.2 601C784.7 601 773.3 601 761.8 601C750.3 601 738.7 601 727 601C715.3 601 703.7 601 692.2 601C680.7 601 669.3 601 657.8 601C646.3 601 634.7 601 623 601C611.3 601 599.7 601 588.2 601C576.7 601 565.3 601 553.8 601C542.3 601 530.7 601 519.2 601C507.7 601 496.3 601 484.8 601C473.3 601 461.7 601 450 601C438.3 601 426.7 601 415.2 601C403.7 601 392.3 601 380.8 601C369.3 601 357.7 601 346.2 601C334.7 601 323.3 601 311.8 601C300.3 601 288.7 601 277 601C265.3 601 253.7 601 242.2 601C230.7 601 219.3 601 207.8 601C196.3 601 184.7 601 173 601C161.3 601 149.7 601 138.2 601C126.7 601 115.3 601 103.8 601C92.3 601 80.7 601 69.2 601C57.7 601 46.3 601 34.8 601C23.3 601 11.7 601 5.8 601L0 601Z" fill="#59387A" stroke-linecap="round" stroke-linejoin="miter"></path></svg>